<?xml version="1.0" standalone="no"?>
<!DOCTYPE svg PUBLIC "-//W3C//DTD SVG 20010904//EN"
 "http://www.w3.org/TR/2001/REC-SVG-20010904/DTD/svg10.dtd">
<svg version="1.0" xmlns="http://www.w3.org/2000/svg"
 width="962.000000pt" height="962.000000pt" viewBox="0 0 962.000000 962.000000"
 preserveAspectRatio="xMidYMid meet">
<metadata>
Created by potrace 1.11, written by Peter Selinger 2001-2013
</metadata>
<g transform="translate(0.000000,962.000000) scale(0.100000,-0.100000)"
fill="#000000" stroke="none">
<path d="M6919 9548 c0 -69 -7 -249 -13 -372 -4 -69 -7 -82 -28 -98 -12 -9
-26 -18 -30 -18 -15 0 -38 -60 -38 -97 0 -21 9 -53 20 -71 14 -23 20 -50 20
-92 0 -60 0 -60 -27 -55 -31 5 -48 -3 -48 -24 0 -9 -91 -52 -250 -118 -137
-57 -253 -107 -257 -111 -9 -9 21 -124 34 -133 7 -4 11 -276 9 -506 l-1 -43
-225 0 -225 0 0 -337 0 -338 1124 0 1124 0 0 337 0 338 -277 0 -278 0 0 273
c0 182 3 274 10 279 6 4 19 34 28 68 l17 62 -42 17 c-22 10 -139 58 -258 107
-190 78 -218 92 -218 111 0 19 -5 22 -35 19 l-35 -4 0 60 c0 45 5 64 20 80 24
26 34 75 25 117 -7 32 -66 91 -90 91 -11 0 -15 13 -16 48 0 26 -2 79 -4 117
-2 39 -6 129 -9 200 -2 72 -5 136 -5 143 -1 6 -5 12 -11 12 -6 0 -10 -28 -11
-62z m556 -1460 l0 -273 -541 -3 -542 -2 0 275 1 275 541 0 541 0 0 -272z
m-1165 -365 c1 -28 1 -443 0 -494 l0 -46 -185 0 c-102 0 -188 4 -191 9 -5 7
-8 440 -4 536 0 9 45 12 190 12 174 0 190 -1 190 -17z m1727 -261 l0 -279
-233 0 -234 0 0 279 0 278 234 0 233 0 0 -278z"/>
<path d="M6908 8200 c-26 -3 -49 -8 -52 -10 -2 -3 -7 -23 -10 -45 -4 -22 -15
-86 -26 -143 -31 -163 -45 -147 130 -147 l151 0 -6 40 c-8 51 -24 138 -36 192
-5 23 -9 53 -9 67 0 42 -49 57 -142 46z"/>
<path d="M4428 8695 c-2 -1 -32 -5 -68 -9 -253 -23 -453 -80 -695 -197 -152
-74 -343 -200 -436 -288 -87 -83 -159 -156 -159 -163 0 -4 11 -9 25 -9 14 -1
28 -2 33 -3 4 -2 30 -6 57 -11 28 -4 59 -9 70 -11 11 -3 35 -7 54 -10 18 -3
43 -8 55 -10 11 -2 113 -20 226 -39 113 -19 216 -37 230 -40 14 -3 79 -14 145
-25 66 -11 134 -22 150 -25 17 -3 57 -10 90 -16 33 -6 71 -12 85 -15 14 -2 66
-11 115 -20 50 -8 101 -17 115 -19 23 -4 383 -66 460 -80 19 -4 46 -8 60 -10
64 -11 198 -34 220 -39 14 -3 41 -8 60 -11 19 -2 44 -6 55 -9 18 -3 65 -11
135 -22 33 -6 129 -24 158 -30 l22 -4 0 209 0 209 180 -2 c100 0 188 2 197 5
13 4 -7 29 -82 104 -315 311 -717 514 -1135 570 -25 3 -58 9 -75 11 -31 6
-342 14 -347 9z"/>
<path d="M706 7568 c-3 -13 -4 -126 -3 -253 l2 -230 70 1 c72 2 187 6 760 29
77 3 201 7 275 10 74 3 189 7 255 10 66 3 181 7 255 10 74 3 187 7 250 10 63
2 180 7 260 10 80 3 195 8 255 10 61 3 178 7 260 10 83 3 200 7 260 10 104 5
217 9 525 20 74 3 185 7 245 10 61 3 173 7 250 10 242 9 417 16 520 20 195 8
480 19 513 19 l32 0 0 58 0 58 -37 1 c-21 1 -54 2 -73 4 -19 1 -120 5 -225 9
-104 4 -230 9 -280 11 -49 2 -162 6 -250 10 -88 3 -209 8 -270 10 -60 3 -175
7 -255 10 -80 3 -199 8 -265 10 -66 3 -178 8 -250 10 -198 7 -399 15 -510 20
-55 3 -170 7 -255 10 -85 3 -202 7 -260 10 -113 5 -345 14 -530 20 -63 2 -176
7 -250 10 -74 3 -187 8 -250 10 -63 2 -180 7 -260 10 -207 8 -352 13 -540 20
-91 4 -177 8 -192 11 -22 3 -28 0 -32 -18z"/>
<path d="M5569 7066 c-2 -2 -22 -7 -44 -10 -54 -9 -56 -9 -325 -56 -129 -23
-248 -43 -265 -44 -16 -2 -41 -7 -55 -10 -14 -3 -38 -8 -55 -11 -16 -3 -70
-12 -120 -20 -49 -9 -101 -18 -115 -20 -14 -2 -65 -11 -115 -20 -49 -9 -99
-18 -110 -19 -11 -2 -51 -9 -90 -15 -38 -7 -81 -14 -95 -16 -73 -14 -261 -46
-295 -51 -16 -3 -54 -10 -84 -15 -30 -6 -64 -12 -75 -14 -17 -2 -252 -43 -456
-79 -14 -2 -47 -8 -75 -12 -27 -4 -54 -8 -60 -10 -16 -4 -60 -11 -220 -39
-168 -28 -179 -30 -289 -50 -43 -8 -80 -15 -83 -15 -6 0 5 -106 23 -210 124
-729 654 -1344 1359 -1576 138 -45 257 -71 420 -90 119 -15 422 -8 516 12 13
2 40 7 59 10 138 22 352 91 505 163 109 52 271 149 297 178 27 31 32 171 32
1035 l1 827 -83 91 c-79 84 -92 96 -103 86z"/>
<path d="M5893 7012 l-41 -3 16 -29 c13 -22 25 -30 45 -30 l28 0 -4 -937 c-1
-516 -6 -947 -9 -958 -3 -11 -9 -63 -13 -115 -4 -52 -8 -108 -10 -124 -2 -15
-7 -72 -10 -125 -3 -53 -8 -103 -10 -111 -2 -8 -6 -53 -10 -100 -3 -47 -8
-101 -10 -120 -5 -42 -13 -129 -20 -225 -3 -38 -7 -88 -9 -110 -2 -22 -7 -76
-11 -120 -3 -44 -8 -91 -10 -105 -2 -14 -6 -59 -10 -100 -14 -174 -23 -273
-30 -340 -7 -77 -15 -162 -20 -230 -3 -36 -7 -87 -10 -115 -2 -27 -7 -81 -10
-120 -9 -104 -13 -153 -30 -330 -8 -78 -14 -154 -20 -225 -9 -117 -15 -184
-19 -225 -3 -22 -8 -76 -12 -120 -3 -44 -8 -96 -10 -115 -2 -19 -6 -69 -9
-110 -3 -41 -8 -91 -10 -110 -3 -19 -7 -71 -10 -115 -4 -44 -9 -102 -11 -130
-3 -27 -6 -68 -7 -90 -1 -22 -5 -42 -9 -46 -4 -3 -39 -5 -78 -4 l-70 1 2 -123
2 -123 44 0 44 0 -2 38 c-1 20 -2 57 -1 82 l1 45 1438 0 1437 0 3 -112 3 -113
42 0 43 0 -1 148 c0 122 -2 148 -15 153 -8 3 -48 5 -87 4 -59 0 -73 2 -74 15
-3 38 -7 80 -13 140 -12 116 -18 186 -31 355 -3 44 -8 91 -10 105 -3 14 -7 61
-11 105 -9 133 -13 177 -19 237 -3 32 -7 86 -10 120 -3 35 -8 83 -10 108 -2
25 -7 77 -10 115 -3 39 -8 88 -10 110 -5 48 -16 164 -20 220 -7 88 -16 202
-20 235 -2 19 -7 71 -10 115 -4 44 -8 94 -10 110 -2 17 -7 68 -11 115 -3 47
-8 96 -9 110 -1 14 -5 63 -9 110 -4 47 -9 96 -11 110 -3 14 -7 57 -10 95 -3
39 -7 93 -10 120 -2 28 -7 79 -10 115 -3 36 -8 88 -10 115 -3 28 -7 79 -10
115 -3 36 -7 85 -10 110 -2 25 -7 79 -10 120 -4 41 -8 86 -10 100 -2 14 -7 66
-10 115 -4 50 -8 104 -10 120 -14 120 -17 314 -17 1090 0 484 1 890 1 903 1
18 7 22 34 22 25 0 35 6 44 27 7 15 11 29 8 31 -5 5 -2106 9 -2172 4z m1664
-789 l0 -728 -766 2 c-421 1 -769 2 -773 2 -3 1 -6 327 -6 726 l0 725 772 0
773 0 0 -727z m348 -828 c0 -33 -1 -65 -3 -72 -3 -9 -235 -11 -947 -11 l-943
0 -1 66 c0 36 2 68 4 72 2 4 428 6 947 6 l942 -1 1 -60z m-807 -736 c38 -17
73 -69 77 -115 10 -101 -89 -180 -190 -153 -17 5 -46 24 -64 43 -67 69 -48
177 38 222 44 24 90 25 139 3z m583 -1596 c0 -10 2 -27 3 -38 2 -11 6 -63 10
-115 4 -52 9 -102 11 -110 2 -8 7 -51 10 -95 3 -44 8 -91 10 -105 2 -14 6 -65
10 -114 4 -50 8 -97 10 -105 1 -9 6 -52 9 -96 4 -44 9 -91 11 -105 2 -14 6
-64 10 -111 3 -47 7 -96 9 -110 3 -13 7 -60 11 -104 4 -44 8 -93 10 -110 2
-16 6 -61 10 -100 3 -38 8 -86 10 -105 6 -54 18 -191 19 -230 l1 -35 -215 0
-215 0 0 805 0 805 -360 2 c-240 2 -361 -1 -366 -8 -3 -6 -5 -31 -4 -57 l1
-47 315 0 314 0 0 -750 0 -750 -815 0 -815 0 1 50 c1 46 10 170 18 255 2 19 7
69 10 110 8 90 15 171 21 225 3 22 7 76 10 120 3 44 8 96 10 115 2 19 7 71 10
115 4 44 8 91 10 105 2 14 6 63 10 110 3 47 8 101 10 120 2 19 7 69 10 110 3
41 8 91 10 110 7 61 19 204 19 233 l0 27 923 0 c872 0 923 -1 924 -17z"/>
<path d="M6824 6701 c-2 -2 -4 -105 -4 -228 0 -171 3 -223 13 -223 56 -3 302
2 305 5 4 4 6 338 3 425 l-1 26 -156 -1 c-85 0 -157 -2 -160 -4z"/>
<path d="M1920 6435 c-74 -13 -149 -27 -165 -30 l-30 -5 0 -2232 0 -2233 1868
-1 c1027 -1 1867 1 1868 5 0 3 2 13 3 21 2 8 7 56 10 105 4 50 9 104 11 120 2
17 7 66 10 110 9 101 18 211 31 340 2 22 6 74 9 115 3 41 7 91 10 110 2 19 6
73 10 120 3 47 8 101 10 120 4 32 7 67 20 215 2 28 7 79 10 115 8 88 12 142
20 225 3 39 8 90 10 115 2 25 7 77 10 115 3 39 8 88 10 110 2 22 7 76 10 120
3 44 8 94 10 110 3 17 7 64 10 105 3 41 7 87 9 103 2 15 -1 27 -6 27 -6 0 -48
-18 -94 -40 -162 -77 -475 -170 -649 -194 -51 -7 -119 -15 -170 -21 -55 -7
-362 -7 -405 -1 -19 3 -60 8 -90 11 -61 6 -76 8 -198 31 -229 41 -541 158
-732 272 -19 12 -48 29 -65 38 -62 35 -179 118 -273 194 -346 280 -609 645
-768 1069 -37 98 -107 360 -118 441 -3 25 -9 65 -12 90 -6 41 -9 63 -13 98 -1
16 -10 15 -171 -13z"/>
<path d="M4589 1518 c-57 -61 -115 -123 -129 -138 -14 -15 -70 -76 -125 -135
-55 -59 -113 -123 -130 -140 -30 -32 -236 -254 -265 -285 -8 -9 -62 -67 -120
-130 -58 -63 -112 -121 -120 -130 -188 -201 -361 -387 -400 -430 -8 -10 -33
-36 -55 -58 l-39 -42 139 0 140 1 75 85 c116 131 127 143 183 204 47 51 134
147 257 284 25 28 64 71 86 96 44 48 51 56 159 176 39 42 79 87 90 99 11 11
58 63 105 115 47 52 90 100 96 107 6 6 59 65 118 131 l107 119 320 0 c176 0
321 2 323 4 2 2 7 40 11 84 4 44 9 83 12 88 2 4 -162 7 -365 7 l-369 0 -104
-112z"/>
<path d="M8436 1568 c7 -78 12 -109 17 -115 4 -3 368 -6 490 -4 l27 1 0 90 0
90 -270 0 -271 0 7 -62z"/>
</g>
</svg>
